<?xml version="1.0" encoding="iso-8859-1"?>
<!-- Uploaded to: SVG Repo, www.svgrepo.com, Generator: SVG Repo Mixer Tools -->
<svg fill="#000000" height="800px" width="800px" version="1.1" id="Layer_1" xmlns="http://www.w3.org/2000/svg" xmlns:xlink="http://www.w3.org/1999/xlink" 
	 viewBox="0 0 504.2 504.2" xml:space="preserve">
<g>
	<g>
		<path d="M503.3,248.5c-36.8-72.8-138-122-251.2-122S37.7,175.7,0.9,248.5c-1.2,2.4-1.2,4.8,0,7.2c36.8,72.8,138,122,251.2,122
			s214.4-49.2,251.2-122C504.5,253.3,504.5,250.9,503.3,248.5z M252.1,362.1c-105.6,0-199.6-44-235.2-110
			c35.6-66,129.6-110,235.2-110s199.6,44,235.2,110C451.7,318.1,357.7,362.1,252.1,362.1z"/>
	</g>
</g>
<g>
	<g>
		<path d="M320.9,142.9c-1.2-1.2-2.8-2.4-4.4-3.2c-20.8-3.6-42.8-5.6-65.2-5.6c-22,0.4-44,2.4-65.2,6c-1.6,1.2-2.8,2-4.4,3.2
			c-23.6,20.4-37.2,50-37.2,80.8c0,58.8,48,106.8,106.8,106.8s106.8-48,106.8-106.8C358.1,192.9,344.5,163.3,320.9,142.9z
			 M306.9,256.1c-17.6,0-31.6-14-31.6-31.6c0.4-9.2,4.4-18,11.2-24c5.6-4.8,13.2-7.6,20.8-7.6s14.8,2.8,20.4,7.6
			c6.8,6,10.8,14.8,10.8,24C338.5,242.1,324.5,256.1,306.9,256.1z"/>
	</g>
</g>
</svg>